<?xml version="1.0" standalone="no"?>
<!DOCTYPE svg PUBLIC "-//W3C//DTD SVG 20010904//EN"
 "http://www.w3.org/TR/2001/REC-SVG-20010904/DTD/svg10.dtd">
<svg version="1.0" xmlns="http://www.w3.org/2000/svg"
 width="735.927677pt" height="747.116807pt" viewBox="0 0 735.927677 747.116807"
 preserveAspectRatio="xMidYMid meet">
<metadata>
Created by potrace 1.16, written by Peter Selinger 2001-2019
</metadata>
<g transform="translate(-250.000000,775.996526) scale(0.100000,-0.100000)"
fill="#000000" stroke="none">
<path d="M2774 7741 c-66 -41 -70 -52 -77 -246 -4 -96 -4 -493 0 -880 l6 -705
233 0 233 0 83 76 c46 43 88 83 93 89 7 8 10 124 10 321 l0 309 -27 36 c-33
42 -36 81 -8 109 44 44 109 31 130 -26 14 -36 13 -40 -20 -77 l-30 -35 0 -323
0 -324 -87 -80 c-141 -130 -100 -117 -376 -119 l-242 -1 -3 -97 -3 -98 187 0
c185 0 186 0 205 24 37 47 138 14 139 -45 0 -9 -9 -28 -21 -43 -28 -36 -86
-36 -119 -1 -23 25 -25 25 -202 25 l-178 0 0 -87 0 -88 277 -2 c211 -2 278 -6
284 -15 14 -22 -73 -29 -324 -26 l-238 3 3 -402 c3 -389 4 -403 23 -418 12 -9
35 -14 56 -13 l37 3 -24 -35 c-23 -34 -24 -40 -24 -255 l0 -220 -35 -28 c-30
-24 -35 -34 -35 -68 0 -51 13 -75 50 -94 46 -24 78 -19 116 19 26 26 34 43 34
69 0 38 -29 82 -60 92 -19 6 -20 16 -20 221 l0 215 41 42 c22 23 38 37 35 30
-10 -18 19 -78 45 -97 18 -12 47 -16 116 -16 l93 0 0 -279 c0 -270 -1 -280
-20 -286 -11 -3 -29 -18 -40 -32 -36 -46 -22 -116 30 -146 60 -36 128 -10 150
57 13 42 2 75 -38 107 l-29 24 -7 278 -6 277 55 0 c72 0 119 20 145 62 19 31
20 50 20 296 l0 262 36 0 c28 0 35 3 30 15 -7 20 8 19 28 -1 14 -13 15 -42 11
-207 -3 -106 -7 -357 -10 -559 l-5 -368 124 -122 124 -123 -5 -50 c-5 -45 -2
-53 23 -78 31 -32 63 -42 100 -33 75 19 101 116 45 170 -25 24 -36 28 -75 24
l-46 -3 -118 118 -117 117 -3 559 -3 559 23 6 c13 3 65 6 115 6 92 0 93 0 132
35 l39 36 101 -81 101 -80 0 -374 c0 -364 -1 -375 -20 -381 -49 -15 -76 -96
-50 -146 14 -25 62 -49 99 -49 38 0 88 41 96 80 8 37 -18 94 -50 108 l-25 11
-2 393 -3 392 -122 96 -123 95 0 296 c0 298 6 423 21 414 13 -8 59 17 53 29
-14 28 70 -81 253 -329 329 -446 437 -594 459 -628 21 -32 21 -37 16 -513 l-4
-480 -119 -131 -119 -131 -35 9 c-91 26 -157 -87 -92 -158 63 -70 182 -8 164
85 -5 24 10 43 125 167 l130 140 -4 468 c-3 257 -2 464 2 460 4 -4 71 -97 150
-207 82 -114 157 -207 176 -220 l34 -21 2 -270 3 -270 25 -3 c20 -3 22 -2 12
11 -9 11 -12 82 -11 271 l1 256 29 0 c41 0 89 22 120 56 28 30 194 258 579
794 124 173 253 351 286 396 32 44 91 124 129 177 51 71 71 92 75 79 10 -32
33 -72 42 -72 4 0 8 -60 8 -133 l0 -133 -215 -202 -215 -203 0 -285 0 -286
-212 -226 c-117 -125 -257 -274 -311 -331 l-98 -103 1 -230 1 -229 -30 -28
c-78 -73 12 -186 108 -137 54 29 57 108 4 141 l-32 20 -1 222 c0 166 3 225 13
235 37 39 342 364 465 496 l142 152 0 282 0 283 193 189 192 190 5 -100 c3
-54 10 -108 17 -120 15 -27 52 -51 84 -56 23 -3 24 -5 27 -107 l3 -103 -116
-117 -115 -117 0 -306 0 -306 -64 -68 c-61 -66 -64 -68 -90 -56 -64 29 -136 0
-152 -62 -15 -60 37 -121 103 -119 45 1 93 48 93 91 0 20 20 47 80 110 l80 82
0 306 0 306 138 144 137 144 5 171 c5 163 4 171 -15 182 -48 25 -59 77 -24
121 16 20 29 26 59 26 30 0 43 -6 59 -26 36 -45 24 -90 -32 -124 -18 -11 -26
-20 -19 -20 9 0 12 -41 12 -173 l0 -173 -65 -63 c-36 -35 -65 -72 -65 -82 0
-25 56 -59 98 -59 40 0 88 23 102 49 6 11 10 89 10 180 l0 161 29 0 c16 0 36
3 45 6 10 4 16 1 16 -9 0 -15 42 -50 85 -72 18 -10 20 -22 23 -157 l3 -146
-78 -54 -78 -53 -3 -622 c-2 -618 -2 -622 -23 -628 -21 -7 -59 -60 -59 -83 0
-28 32 -80 56 -91 74 -33 154 11 154 85 0 30 -7 44 -40 75 l-40 38 2 598 3
598 79 54 78 54 -3 841 -4 841 104 122 c66 77 108 120 117 116 8 -3 14 -10 14
-15 0 -6 -43 -61 -95 -123 l-94 -112 0 -459 c2 -783 -3 -1239 -12 -1248 -17
-19 -9 -48 22 -77 25 -24 40 -29 79 -29 39 0 54 5 79 29 l31 29 0 729 0 729
55 27 55 27 0 561 0 561 -25 20 c-22 17 -25 25 -19 56 8 47 30 65 72 58 23 -3
31 -1 26 7 -3 7 6 -1 20 -16 34 -37 33 -70 -1 -95 l-28 -20 -3 -577 -3 -576
-47 -22 c-26 -12 -50 -26 -54 -32 -4 -5 -8 -392 -8 -860 l0 -849 -57 -58 c-41
-42 -65 -58 -84 -58 -32 0 -77 -34 -90 -68 -12 -32 5 -87 34 -107 34 -24 94
-19 122 9 34 34 41 71 22 112 l-16 33 59 53 60 52 0 92 c0 242 14 544 24 535
19 -15 53 -19 72 -8 14 7 13 3 -6 -17 -57 -62 -14 -161 70 -161 83 0 121 88
70 158 -13 16 -18 27 -12 24 5 -4 12 3 16 16 3 12 6 583 6 1269 l0 1246 -26
31 c-14 17 -42 35 -62 41 -25 8 -205 10 -547 8 -510 -3 -510 -3 -541 -25 -26
-19 -462 -620 -1145 -1580 -52 -73 -96 -132 -99 -132 -3 0 -61 77 -129 172
-69 95 -164 226 -211 292 -48 66 -253 350 -455 630 -202 281 -384 530 -404
555 -21 25 -57 55 -81 68 -44 22 -45 22 -545 22 -472 0 -502 -1 -531 -19z
m227 -131 l30 -30 332 -2 332 -3 65 -86 c36 -48 124 -167 195 -265 72 -98 194
-265 272 -371 78 -106 147 -202 153 -213 9 -17 17 -20 44 -15 43 9 96 -33 96
-75 0 -75 -95 -110 -140 -53 -16 21 -20 37 -16 61 4 30 -2 44 -53 110 -58 77
-364 493 -540 735 l-93 127 -334 0 c-210 0 -334 -4 -334 -10 0 -17 -59 -41
-85 -34 -57 14 -75 97 -29 133 37 29 70 26 105 -9z m3869 -36 c38 -15 40 -18
40 -58 0 -37 -3 -43 -27 -52 -26 -9 -29 -8 -43 31 -12 32 -22 41 -45 45 -17 3
-29 9 -27 13 1 4 2 11 2 16 0 9 20 17 47 20 7 0 31 -6 53 -15z m290 -114 l0
-100 -65 0 -65 0 0 100 0 100 65 0 65 0 0 -100z m-551 -26 c89 -74 11 -218
-100 -185 -51 15 -79 53 -79 105 1 93 107 141 179 80z m-3076 -89 c10 -7 21
-31 24 -52 4 -33 1 -42 -25 -66 -34 -33 -71 -30 -101 9 -18 23 -21 23 -237 26
l-219 3 -3 -502 -2 -501 30 -30 c38 -38 38 -66 1 -103 -35 -34 -68 -37 -105
-8 -37 29 -37 89 0 118 l26 20 -1 510 c-1 454 0 511 14 525 14 14 49 16 249
16 218 0 234 1 250 19 16 18 36 26 71 29 6 1 18 -5 28 -13z m-310 -250 c29
-12 85 -15 266 -15 l230 0 25 -32 c14 -18 130 -177 257 -353 245 -338 308
-423 319 -430 4 -2 67 -11 141 -20 l134 -16 75 -75 c70 -69 79 -74 118 -74 51
0 82 -26 82 -71 0 -43 -15 -65 -51 -78 -57 -20 -118 34 -104 92 5 18 -9 37
-63 93 -63 64 -74 72 -118 77 -27 3 -93 11 -146 18 l-97 11 -297 409 -297 409
-222 0 -223 0 -15 -24 c-21 -32 -63 -41 -93 -21 -32 21 -33 77 -2 99 28 20 36
20 81 1z m3786 -8 c6 -8 14 -28 17 -45 9 -43 -16 -79 -60 -87 -29 -6 -52 -29
-152 -152 -66 -79 -129 -159 -141 -176 -23 -31 -23 -36 -23 -345 l0 -314 30
-28 c46 -43 40 -99 -12 -126 -87 -45 -160 59 -88 126 l30 28 0 326 0 325 63
78 c35 43 98 121 140 173 68 84 77 99 77 136 0 56 30 94 75 94 18 0 38 -6 44
-13z m-449 -33 c0 -23 -159 -234 -175 -234 -32 0 -20 24 61 134 80 109 114
138 114 100z m-419 -146 c-13 -13 -98 -131 -190 -263 -92 -132 -236 -338 -321
-459 -133 -190 -152 -221 -142 -237 32 -50 -9 -109 -74 -109 -36 0 -64 29 -64
66 0 31 44 80 77 88 22 4 45 31 103 118 140 209 541 773 566 796 14 12 35 22
46 22 21 0 21 0 -1 -22z m-2328 -304 c26 -28 47 -55 47 -60 0 -6 -20 -30 -45
-54 l-44 -44 -43 49 c-66 74 -65 72 -17 121 24 24 46 43 49 42 3 -2 27 -26 53
-54z m2529 -57 l48 -42 -51 -57 c-28 -32 -56 -58 -62 -58 -7 0 -32 18 -56 38
l-43 38 52 62 c28 34 55 62 58 62 4 -1 28 -20 54 -43z m-2394 -177 c4 -40 -16
-60 -60 -60 -25 0 -28 4 -28 31 0 50 17 71 53 67 28 -3 32 -7 35 -38z m-298
-937 c37 -31 42 -89 10 -118 -33 -30 -88 -25 -117 9 -29 34 -25 67 12 106 l24
25 3 443 c3 381 5 444 18 452 13 8 15 -44 18 -441 l2 -450 30 -26z m2468 739
c9 -6 6 -17 -15 -44 -16 -20 -48 -63 -72 -95 -24 -32 -53 -66 -65 -75 -22 -19
-56 -24 -56 -9 0 19 79 108 128 146 36 27 52 46 52 62 0 24 7 28 28 15z
m-1661 -84 l42 -41 -40 -49 c-23 -26 -44 -48 -49 -48 -4 0 -28 19 -54 41 l-47
42 47 48 c27 27 50 49 53 49 3 0 24 -19 48 -42z m1448 -208 c41 -66 30 -96
-40 -107 -30 -5 -42 -15 -69 -57 -67 -105 -409 -582 -437 -611 l-29 -30 -191
-3 c-105 -2 -202 -1 -215 2 -25 7 -23 4 -265 336 -302 417 -299 413 -299 442
0 15 3 28 8 27 4 0 77 -97 162 -216 389 -541 393 -546 427 -555 18 -5 106 -7
195 -6 l163 3 118 165 c329 460 361 509 359 554 -3 46 5 62 39 81 38 21 47 18
74 -25z m-697 -237 c47 -35 66 -70 66 -122 0 -56 -20 -93 -67 -121 -54 -33
-92 -35 -144 -9 -79 41 -104 123 -62 199 43 76 142 101 207 53z m-1851 -469
c-6 -129 -16 -151 -61 -140 -21 5 -26 13 -26 35 0 52 -8 61 -56 61 l-44 0 0
80 0 80 96 0 97 0 -6 -116z m4151 -87 c15 -12 16 -49 0 -65 -7 -7 -24 -12 -38
-12 -34 0 -50 17 -50 52 0 43 48 56 88 25z m-4257 -203 c37 -19 63 -75 55
-119 -14 -73 -111 -117 -174 -79 -133 78 -18 269 119 198z m1960 12 c2 -2 2
-30 1 -61 l-4 -56 -91 3 -92 3 -3 58 -3 57 94 0 c51 0 96 -2 98 -4z m1947
-516 c26 -25 28 -47 5 -72 -40 -45 -120 1 -92 54 23 43 53 50 87 18z m-3047
-170 c36 -20 14 -90 -28 -90 -21 0 -53 29 -53 48 0 20 29 52 47 52 8 0 23 -5
34 -10z m2005 -115 c32 -49 -23 -104 -75 -75 -27 14 -29 74 -3 89 30 18 61 12
78 -14z m-3282 -91 c22 -22 20 -50 -6 -68 -28 -20 -43 -20 -62 0 -19 18 -21
55 -4 72 17 17 54 15 72 -4z m376 -175 c25 -46 -15 -93 -59 -70 -29 16 -36 49
-15 72 23 25 60 24 74 -2z m1196 -114 c25 -38 6 -75 -39 -75 -37 0 -57 15 -57
43 0 58 65 80 96 32z m-526 -34 c16 -31 12 -49 -15 -67 -23 -15 -27 -15 -50 0
-43 28 -26 86 25 86 19 0 33 -7 40 -19z m2962 -166 c9 -21 8 -28 -7 -45 -32
-36 -85 -20 -85 25 0 49 71 65 92 20z m-1464 -11 c41 -29 23 -84 -28 -84 -32
0 -50 17 -50 46 0 20 32 54 50 54 3 0 16 -7 28 -16z"/>
<path d="M2927 7573 c-3 -5 -2 -15 3 -22 10 -17 43 -6 38 12 -6 15 -34 22 -41
10z"/>
<path d="M4427 6556 c-7 -19 18 -42 28 -26 8 13 -1 40 -14 40 -5 0 -11 -6 -14
-14z"/>
<path d="M3495 7270 c-3 -5 -1 -10 4 -10 6 0 11 5 11 10 0 6 -2 10 -4 10 -3 0
-8 -4 -11 -10z"/>
<path d="M2924 6189 c-3 -6 0 -17 7 -25 18 -17 44 -2 36 20 -7 18 -33 21 -43
5z"/>
<path d="M4774 6015 c-7 -18 3 -35 21 -35 21 0 28 19 15 35 -16 19 -29 19 -36
0z"/>
<path d="M6633 5893 c-18 -7 -16 -33 2 -33 8 0 15 9 15 20 0 11 -1 20 -2 19
-2 0 -9 -3 -15 -6z"/>
<path d="M3585 5380 c-4 -7 -3 -16 3 -22 14 -14 45 -2 40 15 -6 16 -34 21 -43
7z"/>
<path d="M3372 6799 c2 -7 10 -15 17 -17 8 -3 12 1 9 9 -2 7 -10 15 -17 17 -8
3 -12 -1 -9 -9z"/>
<path d="M6625 5550 c3 -5 8 -10 11 -10 2 0 4 5 4 10 0 6 -5 10 -11 10 -5 0
-7 -4 -4 -10z"/>
<path d="M7509 4687 c-19 -18 -50 -44 -67 -60 l-32 -27 0 -265 0 -265 -37 -34
c-32 -29 -38 -40 -38 -76 0 -35 6 -47 33 -71 70 -63 172 -20 172 72 0 35 -6
47 -36 76 l-36 34 -6 248 -5 249 47 44 c40 37 47 49 44 75 l-3 32 -36 -32z
m-39 -697 c25 -25 25 -42 0 -65 -46 -41 -105 20 -64 66 22 24 39 24 64 -1z"/>
<path d="M4130 3306 c-235 -30 -598 -99 -1108 -210 -287 -62 -362 -82 -362
-96 0 -7 384 -10 1070 -10 904 0 1075 -2 1098 -14 33 -17 79 -66 120 -126 58
-86 108 -120 178 -120 67 0 128 46 206 155 20 28 48 61 63 75 l27 25 1081 5
c1034 5 1080 6 1047 22 -51 26 -189 59 -522 127 -640 130 -881 170 -1088 177
-335 13 -558 -67 -742 -266 l-74 -79 -41 54 c-89 115 -255 216 -433 262 -118
31 -356 40 -520 19z"/>
<path d="M2565 2921 c-45 -27 -65 -63 -65 -117 0 -41 5 -51 39 -85 l39 -39
1060 0 1061 0 29 -42 c40 -58 130 -141 180 -167 212 -108 473 -37 613 165 l30
44 1060 2 1061 3 34 37 c29 33 34 45 34 88 0 43 -5 55 -34 88 l-34 37 -1112 0
-1111 0 -42 -46 c-23 -26 -66 -74 -95 -108 -30 -34 -72 -71 -94 -82 -49 -25
-128 -28 -180 -6 -41 17 -109 86 -165 167 -21 30 -50 60 -63 67 -20 10 -263
13 -1120 13 -1049 0 -1096 -1 -1125 -19z"/>
<path d="M9552 438 l3 -143 32 -3 32 -3 3 77 3 78 28 -43 29 -43 24 23 24 22
0 -56 c0 -57 0 -57 30 -57 l30 0 0 104 c0 66 4 107 11 112 8 4 9 0 4 -15 -3
-12 -3 -62 1 -112 6 -84 8 -90 28 -87 18 3 21 11 24 63 2 33 1 97 -3 143 l-7
82 -29 0 c-24 0 -38 -11 -75 -60 -26 -33 -50 -57 -54 -55 -4 2 -24 29 -45 60
-31 45 -43 55 -67 55 l-29 0 3 -142z"/>
</g>
</svg>
