<?xml version="1.0" standalone="no"?>
<!DOCTYPE svg PUBLIC "-//W3C//DTD SVG 20010904//EN"
 "http://www.w3.org/TR/2001/REC-SVG-20010904/DTD/svg10.dtd">
<svg version="1.0" xmlns="http://www.w3.org/2000/svg"
 width="792.275281pt" height="728.000000pt" viewBox="0 0 792.275281 728.000000"
 preserveAspectRatio="xMidYMid meet">
<metadata>
Created by potrace 1.16, written by Peter Selinger 2001-2019
</metadata>
<g transform="translate(-194.949162,760.000000) scale(0.100000,-0.100000)"
fill="#000000" stroke="none">
<path d="M3000 7110 l0 -490 -114 0 c-108 0 -117 1 -141 24 -34 32 -77 41
-112 24 -24 -11 -28 -20 -31 -64 -4 -62 16 -84 76 -87 30 -1 48 5 65 21 21 20
33 22 140 22 l117 0 0 -195 0 -195 -116 0 c-101 0 -119 3 -141 20 -28 22 -58
25 -98 10 -25 -9 -26 -13 -23 -72 l3 -62 38 -8 c42 -9 90 9 100 37 5 12 27 15
122 15 l115 0 0 -335 0 -335 -135 0 -135 0 0 -895 0 -895 30 0 30 0 2 868 3
867 100 0 100 0 3 -822 2 -823 510 0 510 0 2 1013 3 1012 100 -139 c55 -76
185 -256 288 -400 103 -143 238 -330 300 -413 l111 -153 293 0 293 0 52 72 53
73 3 -293 c2 -281 1 -295 -18 -319 -24 -31 -28 -114 -6 -132 9 -8 33 -9 70 -5
48 6 57 10 62 30 9 36 -4 89 -26 109 -19 17 -20 32 -20 358 l0 339 102 142
c115 160 357 494 460 635 l68 93 0 -1011 0 -1011 515 0 515 0 0 295 0 295 100
0 100 0 2 -337 3 -338 33 -3 32 -3 -2 368 -3 368 -132 3 -133 3 0 849 c0 468
-1 853 -2 858 -2 4 48 8 111 10 112 3 115 2 142 -24 24 -23 34 -26 75 -21 55
6 64 16 64 79 0 37 -4 50 -19 58 -33 17 -96 12 -124 -10 -22 -17 -40 -20 -136
-20 l-111 0 0 195 0 195 115 0 c102 0 117 -2 135 -20 23 -23 96 -28 122 -7 18
14 29 97 16 120 -14 26 -76 33 -114 12 -18 -10 -35 -24 -38 -31 -4 -11 -32
-14 -121 -14 -103 0 -115 2 -116 18 0 9 0 230 1 490 l1 472 -513 0 -513 0 -21
-33 c-12 -17 -113 -151 -225 -297 -673 -873 -852 -1101 -859 -1093 -4 4 -52
67 -106 138 -55 72 -141 184 -191 250 -188 243 -291 378 -540 703 l-255 332
-509 0 -509 0 0 -490z m817 225 c13 -14 26 -37 29 -50 8 -32 -20 -87 -55 -108
-35 -20 -410 -398 -428 -430 -7 -12 -12 -59 -13 -104 0 -83 -9 -104 -35 -83
-24 20 -20 163 5 214 11 24 93 115 199 220 l180 180 -25 29 c-42 50 -28 122
31 156 30 17 87 5 112 -24z m3141 -13 c51 -33 66 -104 32 -159 -52 -86 -178
-78 -216 13 -47 112 81 213 184 146z m-3523 2 c33 -15 65 -65 65 -99 0 -31
-30 -81 -59 -98 -76 -45 -172 12 -171 100 1 37 20 70 56 94 35 23 65 24 109 3z
m3105 -11 c31 -26 32 -29 27 -84 l-5 -57 180 -187 c110 -115 178 -193 176
-203 -8 -43 -42 -16 -218 170 -180 191 -182 192 -221 189 -88 -6 -134 106 -70
170 39 39 87 39 131 2z m-2441 -199 c26 -22 31 -33 31 -71 0 -36 -6 -50 -30
-75 -24 -24 -37 -29 -68 -27 -37 3 -42 0 -137 -107 -54 -60 -165 -181 -245
-269 -81 -88 -162 -177 -180 -198 l-33 -38 18 -33 c36 -67 -8 -146 -82 -146
-45 0 -80 24 -93 66 -20 59 13 114 76 131 22 5 59 38 120 108 49 55 175 193
281 308 l191 207 -5 58 c-5 56 -4 59 27 85 42 35 88 36 129 1z m2332 -243 c21
-22 29 -39 29 -65 0 -36 0 -36 43 -36 23 0 62 -10 86 -21 57 -25 264 -228 291
-284 19 -40 20 -63 20 -708 l0 -667 25 -6 c90 -23 101 -175 15 -219 -91 -47
-198 39 -170 136 11 36 47 79 67 79 11 0 13 119 13 664 0 366 -4 675 -9 688
-11 28 -231 247 -269 267 -44 24 -123 31 -156 14 -34 -18 -90 -12 -117 13 -27
24 -42 76 -30 107 27 71 109 91 162 38z m-426 -135 c57 -24 81 -96 50 -155
-14 -28 -68 -61 -100 -61 -25 0 -72 27 -89 52 -35 50 -9 139 47 163 41 18 50
18 92 1z m-1675 -82 c39 -45 47 -93 25 -149 -23 -62 -65 -90 -135 -90 -70 0
-112 28 -135 90 -23 58 -13 106 29 152 57 62 159 61 216 -3z m-512 -154 c38
-23 55 -60 47 -104 -5 -30 3 -39 196 -221 111 -104 208 -194 215 -198 10 -6
24 2 45 22 43 44 89 43 135 -3 38 -38 43 -70 19 -116 -19 -37 -43 -50 -93 -50
-33 0 -45 7 -83 48 -25 26 -141 137 -258 247 l-213 200 -54 -3 c-47 -3 -56 -1
-79 24 -18 20 -25 38 -25 68 1 44 11 62 50 89 32 22 58 21 98 -3z m2670 -120
c67 -41 77 -133 21 -189 -60 -61 -156 -44 -194 34 l-16 35 -377 2 -377 3 -3
23 -3 22 384 0 384 0 11 25 c15 32 69 65 107 65 17 0 45 -9 63 -20z m-1870
-237 c77 -72 118 -118 136 -155 25 -51 26 -57 26 -254 l0 -202 29 -30 c39 -38
46 -70 27 -116 -41 -98 -186 -69 -186 37 0 34 6 46 40 78 l40 38 0 191 c0 155
-3 197 -16 223 -9 18 -68 84 -131 149 -84 84 -114 121 -109 133 3 9 12 15 20
13 8 -2 64 -49 124 -105z m1269 -35 c50 -47 34 -133 -31 -165 -43 -20 -76 -12
-113 27 -27 29 -30 30 -125 30 -92 0 -97 -1 -117 -26 -16 -20 -21 -41 -21 -83
0 -88 9 -95 130 -101 100 -5 103 -6 131 -38 28 -31 29 -36 29 -135 l0 -103
-61 -105 c-34 -57 -68 -111 -75 -119 -9 -11 -11 -29 -7 -53 7 -48 -12 -94 -48
-112 -104 -54 -201 74 -119 157 26 26 36 29 77 27 l48 -3 53 83 c28 47 50 86
48 88 -2 3 -117 4 -255 3 -334 -1 -341 2 -341 150 0 66 -1 70 -29 84 -68 35
-103 113 -82 179 41 124 204 143 268 31 13 -21 23 -51 23 -66 0 -59 -44 -125
-101 -148 -28 -12 -29 -15 -29 -79 0 -39 5 -72 12 -79 9 -9 87 -12 290 -12
l278 0 0 78 c0 42 -4 82 -8 88 -16 24 -54 34 -131 34 -75 0 -83 2 -113 29 -31
28 -33 33 -36 110 -4 68 -1 85 17 115 28 44 63 56 175 56 l91 1 20 32 c38 60
103 71 152 25z m-2099 -34 c37 -26 55 -71 43 -107 -16 -44 -39 -66 -76 -73
-37 -7 -89 15 -105 45 -33 64 12 151 79 151 20 0 47 -7 59 -16z m-371 -105
c43 -42 39 -107 -12 -151 l-25 -22 0 -473 c0 -400 2 -474 14 -479 8 -3 22 -21
31 -40 48 -102 -76 -194 -156 -115 -49 49 -32 135 31 161 l30 12 0 469 c0 457
0 468 -20 474 -56 18 -77 101 -39 149 40 51 101 56 146 15z m3213 -74 c32 -29
43 -70 30 -109 -15 -47 -44 -66 -98 -66 -49 0 -86 30 -95 78 -7 35 19 89 52
107 31 18 86 13 111 -10z m-2931 -271 c30 -21 51 -72 44 -107 -3 -16 -21 -40
-39 -55 l-34 -27 0 -522 0 -522 29 -15 c58 -30 66 -125 14 -166 -51 -40 -133
-16 -153 44 -14 44 -5 77 31 112 l29 28 0 519 0 518 -35 33 c-29 28 -35 40
-35 75 0 80 86 129 149 85z m2895 -320 c14 -6 16 -64 16 -554 l0 -548 30 -12
c63 -26 80 -112 31 -161 -65 -64 -171 -20 -171 71 0 34 6 48 30 70 l30 28 0
549 c0 302 3 553 7 556 8 8 8 8 27 1z m-1391 -126 c85 -60 74 -208 -20 -253
-96 -46 -213 24 -213 128 0 120 135 193 233 125z m1799 -593 c124 -84 50 -279
-101 -262 -37 4 -52 13 -82 45 -51 54 -58 98 -28 159 42 82 137 108 211 58z
m-3596 -336 c77 -72 69 -177 -18 -242 -31 -23 -104 -25 -146 -3 -94 49 -100
200 -9 257 46 29 136 23 173 -12z"/>
<path d="M3705 7300 c-41 -45 18 -110 70 -76 27 18 34 63 13 84 -18 18 -63 14
-83 -8z"/>
<path d="M6841 7306 c-86 -48 -52 -176 47 -176 86 0 125 99 63 161 -32 32 -70
37 -110 15z"/>
<path d="M3355 7311 c-79 -33 -77 -141 3 -172 29 -11 86 11 101 39 27 50 7
106 -44 128 -19 8 -36 14 -37 13 -2 0 -12 -4 -23 -8z"/>
<path d="M6434 7274 c-33 -50 14 -107 67 -80 49 24 28 106 -27 106 -14 0 -30
-10 -40 -26z"/>
<path d="M4000 7080 c-11 -11 -20 -28 -20 -38 0 -41 69 -69 98 -40 20 20 14
65 -10 82 -30 21 -44 20 -68 -4z"/>
<path d="M3332 6288 c-23 -28 -18 -74 9 -88 52 -29 107 26 75 75 -18 27 -66
35 -84 13z"/>
<path d="M6327 6842 c-34 -37 -11 -92 38 -92 51 0 71 54 35 90 -25 25 -52 26
-73 2z"/>
<path d="M6850 5033 c-33 -22 -40 -33 -40 -64 0 -33 41 -71 76 -71 32 0 74 42
74 73 0 23 -51 79 -72 79 -7 0 -25 -8 -38 -17z"/>
<path d="M5919 6705 c-55 -30 -59 -103 -7 -139 54 -38 128 0 128 66 -1 37 -14
59 -47 76 -28 15 -42 15 -74 -3z"/>
<path d="M4175 6648 c-94 -51 -61 -188 45 -188 58 0 100 42 100 98 0 71 -85
124 -145 90z"/>
<path d="M3727 6452 c-22 -24 -21 -55 1 -75 37 -34 92 -11 92 38 0 50 -60 73
-93 37z"/>
<path d="M4351 5964 c-25 -32 -26 -43 -5 -72 10 -14 26 -22 44 -22 28 0 60 30
60 56 0 18 -32 52 -56 58 -16 5 -28 0 -43 -20z"/>
<path d="M6379 6355 c-31 -17 -54 -65 -46 -98 8 -31 42 -65 72 -73 35 -9 83
14 100 47 19 35 19 43 0 84 -25 51 -76 67 -126 40z"/>
<path d="M4706 5458 c-9 -12 -16 -30 -16 -39 0 -38 70 -65 98 -37 15 15 16 53
2 79 -15 27 -64 25 -84 -3z"/>
<path d="M5777 6072 c-22 -25 -21 -55 2 -76 48 -44 122 15 87 70 -20 29 -65
32 -89 6z"/>
<path d="M5055 5926 c-44 -44 -45 -107 -3 -146 96 -89 231 48 139 141 -39 38
-100 41 -136 5z"/>
<path d="M5490 5250 c-26 -26 -25 -46 4 -75 17 -16 31 -23 43 -18 29 10 53 35
53 55 0 24 -35 58 -60 58 -11 0 -29 -9 -40 -20z"/>
<path d="M3697 6032 c-38 -42 -12 -92 47 -92 43 0 62 62 28 93 -24 22 -55 21
-75 -1z"/>
<path d="M3305 5930 c-23 -25 -13 -67 20 -82 52 -23 100 46 59 86 -21 22 -57
20 -79 -4z"/>
<path d="M3303 4796 c-24 -21 -26 -27 -18 -52 14 -39 57 -54 85 -29 27 24 26
70 -2 89 -29 21 -32 20 -65 -8z"/>
<path d="M6520 5851 c-32 -61 37 -123 84 -75 19 18 21 65 4 82 -20 20 -76 15
-88 -7z"/>
<path d="M3610 5580 c-42 -42 -11 -98 50 -90 41 5 53 70 18 94 -30 21 -44 20
-68 -4z"/>
<path d="M3622 4334 c-41 -28 -18 -104 31 -104 21 0 57 35 57 55 0 17 -43 65
-57 65 -5 0 -19 -7 -31 -16z"/>
<path d="M6561 4134 c-26 -33 -26 -49 -1 -74 27 -27 65 -26 84 2 22 31 20 51
-7 76 -31 29 -51 28 -76 -4z"/>
<path d="M5063 5141 c-70 -44 -57 -155 22 -181 44 -15 80 -4 110 32 73 86 -36
209 -132 149z"/>
<path d="M6884 4561 c-33 -14 -64 -60 -64 -95 0 -41 24 -75 66 -92 29 -12 39
-12 68 0 69 29 87 102 39 156 -30 32 -75 45 -109 31z"/>
<path d="M3275 4231 c-65 -28 -82 -118 -32 -168 22 -22 37 -28 73 -28 59 0 94
36 94 95 0 70 -76 126 -135 101z"/>
<path d="M4337 4824 c-51 -27 -61 -86 -22 -132 l25 -30 0 -501 0 -501 30 0 30
0 0 500 0 500 24 15 c13 9 30 30 36 46 22 53 -26 121 -83 119 -7 -1 -25 -8
-40 -16z"/>
<path d="M5808 4825 c-38 -21 -54 -75 -33 -115 9 -17 23 -34 31 -37 12 -4 14
-79 14 -514 l0 -509 30 0 30 0 0 504 0 504 30 30 c37 37 40 80 8 116 -28 32
-74 41 -110 21z"/>
<path d="M5023 4255 l-43 -45 -110 0 c-92 0 -115 3 -142 20 -39 24 -60 25 -97
5 -34 -17 -55 -62 -45 -99 8 -34 49 -66 84 -66 31 0 76 31 85 60 6 18 16 20
120 20 l114 0 16 -30 c45 -86 177 -92 220 -10 18 35 19 97 1 128 -20 37 -66
62 -115 62 -40 0 -49 -5 -88 -45z m137 -35 c41 -41 13 -110 -44 -110 -28 0
-66 39 -66 67 0 30 34 63 65 63 14 0 34 -9 45 -20z"/>
<path d="M5061 3712 c-46 -23 -71 -59 -73 -104 -2 -52 19 -95 59 -119 81 -50
193 9 193 103 0 55 -30 105 -75 124 -45 18 -63 18 -104 -4z m102 -74 c35 -42
6 -108 -48 -108 -61 0 -87 81 -38 119 30 24 58 20 86 -11z"/>
<path d="M3320 3459 c-234 -5 -534 -11 -666 -15 l-242 -6 -6 -29 c-3 -16 -3
-57 1 -90 l6 -60 661 8 c364 4 823 8 1021 8 l360 -1 82 -27 c44 -15 108 -45
142 -68 93 -62 188 -177 206 -252 7 -27 7 -27 -46 -27 -50 0 -55 2 -115 60
-68 66 -155 113 -243 131 -80 17 -558 6 -1116 -25 -810 -45 -1046 -57 -1230
-64 l-180 -7 -3 -158 -3 -157 943 2 942 3 38 55 c55 79 99 123 144 145 35 17
62 18 246 17 267 -2 283 -9 383 -151 l50 -71 421 0 420 0 48 65 c60 82 116
129 169 144 28 8 111 11 249 9 l206 -3 44 -30 c24 -17 67 -65 96 -108 l53 -77
945 0 944 0 0 154 0 155 -52 5 c-29 3 -125 8 -213 11 -166 6 -472 21 -1070 55
-192 11 -433 24 -535 30 -102 5 -292 10 -423 10 -214 0 -244 -2 -299 -21 -81
-27 -162 -81 -201 -135 -32 -43 -32 -43 -96 -44 l-63 0 7 28 c10 41 48 102 99
159 95 105 245 176 403 189 87 7 1744 -12 1891 -22 l92 -6 0 95 0 95 -347 6
c-192 4 -535 11 -763 16 -932 22 -1031 14 -1242 -97 -82 -43 -199 -152 -242
-225 l-28 -48 -92 0 -91 0 -44 59 c-109 151 -268 256 -450 298 -84 20 -596 25
-1211 12z"/>
<path d="M9240 410 c0 -33 4 -60 10 -60 6 0 10 12 11 28 0 27 1 27 11 5 13
-26 28 -30 28 -8 0 24 18 18 23 -7 l4 -23 10 24 c9 23 10 24 15 4 5 -18 13
-20 69 -19 l64 1 0 53 c0 54 -12 80 -21 46 -3 -11 -17 -24 -31 -31 -21 -10
-28 -9 -40 2 -17 17 -29 19 -38 5 -11 -18 -25 -11 -22 11 3 35 -20 33 -32 -3
l-12 -33 -14 33 c-22 50 -35 39 -35 -28z m220 -20 c0 -11 -4 -20 -10 -20 -5 0
-10 9 -10 20 0 11 5 20 10 20 6 0 10 -9 10 -20z m-40 -10 c0 -5 -11 -10 -24
-10 -14 0 -28 5 -31 10 -4 6 7 10 24 10 17 0 31 -4 31 -10z"/>
<path d="M9570 410 c0 -64 14 -80 25 -30 8 38 25 39 25 2 0 -26 2 -28 51 -30
l50 -2 -3 37 c-3 33 -7 38 -30 41 -16 2 -28 -1 -28 -7 0 -5 9 -8 20 -6 11 2
18 0 15 -6 -4 -5 -12 -9 -20 -9 -7 0 -16 -8 -21 -17 -6 -15 -8 -12 -13 12 -4
21 -13 31 -29 33 -14 2 -22 10 -22 23 0 10 -4 19 -10 19 -6 0 -10 -27 -10 -60z
m125 -30 c3 -5 1 -10 -4 -10 -6 0 -11 5 -11 10 0 6 2 10 4 10 3 0 8 -4 11 -10z"/>
<path d="M9502 393 c3 -33 6 -38 31 -41 27 -3 28 -2 25 35 -3 33 -6 38 -31 41
-27 3 -28 2 -25 -35z m38 13 c0 -2 -7 -6 -15 -10 -8 -3 -15 -1 -15 4 0 6 7 10
15 10 8 0 15 -2 15 -4z"/>
<path d="M9734 416 c-3 -8 -4 -25 -2 -38 2 -18 9 -23 33 -23 25 0 31 5 35 30
l5 30 15 -34 c10 -26 11 -36 2 -39 -17 -5 -15 -22 3 -22 8 0 15 1 15 3 0 1 9
26 20 55 11 29 15 52 10 52 -6 0 -14 -10 -19 -22 l-8 -22 -12 22 c-9 17 -21
22 -52 22 -25 0 -42 -5 -45 -14z m46 -26 c0 -25 -18 -36 -26 -16 -8 21 3 49
16 41 5 -3 10 -15 10 -25z"/>
</g>
</svg>
