<?xml version="1.0" standalone="no"?>
<!DOCTYPE svg PUBLIC "-//W3C//DTD SVG 20010904//EN"
 "http://www.w3.org/TR/2001/REC-SVG-20010904/DTD/svg10.dtd">
<svg version="1.0" xmlns="http://www.w3.org/2000/svg"
 width="746.267697pt" height="765.869831pt" viewBox="0 0 746.267697 765.869831"
 preserveAspectRatio="xMidYMid meet">
<metadata>
Created by potrace 1.16, written by Peter Selinger 2001-2019
</metadata>
<g transform="translate(-221.000000,791.869831) scale(0.100000,-0.100000)"
fill="#000000" stroke="none">
<path d="M2822 7910 c-59 -12 -104 -42 -138 -92 l-29 -41 -3 -1816 c-1 -999 0
-1831 3 -1849 7 -40 68 -110 112 -129 26 -10 132 -13 507 -13 l474 0 48 32
c27 19 56 50 68 73 21 39 21 53 26 1036 l5 996 42 -61 c22 -33 164 -241 314
-461 150 -220 355 -521 456 -670 102 -148 199 -285 216 -304 47 -49 83 -61
190 -61 111 0 149 13 198 67 40 45 432 617 867 1267 l167 248 5 -1018 c4 -749
8 -1024 17 -1039 17 -29 63 -70 101 -89 29 -15 83 -16 511 -14 l479 3 39 31
c21 17 47 46 58 65 20 34 20 52 20 1871 l0 1836 -30 43 c-18 26 -50 53 -80 68
l-49 26 -499 3 c-340 2 -516 -1 -553 -8 -87 -18 -117 -55 -390 -480 -514 -801
-857 -1330 -863 -1330 -4 0 -32 42 -64 93 -32 50 -193 299 -357 552 -164 253
-386 595 -492 760 -106 164 -204 312 -217 327 -13 16 -44 41 -70 56 l-46 27
-500 2 c-275 1 -519 -3 -543 -7z m4258 -250 l0 -131 -132 3 -133 3 -3 128 -3
127 136 0 135 0 0 -130z m-3640 7 c0 -12 -53 -56 -67 -57 -7 0 -13 7 -13 15 0
13 -31 15 -223 15 -215 0 -223 1 -224 20 -2 19 6 20 225 22 227 3 227 3 230
25 l3 23 35 -28 c19 -15 34 -31 34 -35z m367 -9 c28 -26 31 -86 6 -117 -10
-12 -34 -24 -54 -27 -29 -5 -41 -1 -65 19 -38 33 -41 99 -5 128 32 26 89 25
118 -3z m2588 -42 c68 -68 25 -178 -69 -178 -48 0 -82 23 -96 67 -14 43 1 97
33 120 35 24 104 19 132 -9z m-3029 -115 c100 -61 31 -214 -83 -185 -50 12
-87 65 -79 113 12 78 93 114 162 72z m-499 -2174 c-1 -392 -2 -68 -2 718 0
787 1 1107 2 712 2 -395 2 -1039 0 -1430z m3763 2083 l0 -60 265 0 265 0 0
-939 c0 -516 -3 -959 -6 -985 -7 -46 -8 -47 -243 -249 -130 -111 -247 -211
-261 -222 l-25 -20 3 -169 c2 -93 1 -185 -3 -204 l-7 -36 -19 32 c-19 28 -20
44 -16 189 6 215 7 221 49 257 55 47 343 295 409 351 l59 50 0 948 0 947 -235
0 -235 0 0 -125 c0 -118 1 -125 22 -136 38 -20 57 -52 58 -94 0 -48 -18 -78
-59 -95 -73 -30 -146 19 -146 97 0 40 4 49 38 78 l37 32 0 122 0 121 -193 0
-193 0 -189 -291 c-105 -160 -191 -295 -193 -300 -2 -5 48 -9 111 -9 l114 0
133 206 c74 113 139 208 146 211 7 2 22 3 34 1 18 -3 3 -30 -131 -235 l-152
-233 -151 0 -151 -1 -132 -199 c-118 -178 -130 -201 -117 -217 7 -10 14 -37
14 -61 0 -61 -41 -102 -100 -102 -61 0 -100 41 -100 105 0 58 30 92 91 101
l41 7 257 386 c141 213 299 453 351 534 l95 146 208 1 207 0 0 60 c0 57 1 60
25 60 24 0 25 -3 25 -60z m-2754 -136 c256 -180 246 -174 321 -174 l68 -1 35
-46 c69 -90 66 -82 43 -105 l-21 -21 -29 21 c-15 11 -41 38 -58 61 -28 38 -33
41 -78 41 -44 0 -60 8 -170 82 -67 45 -145 98 -172 118 l-50 37 -52 -29 c-48
-27 -54 -28 -73 -15 -21 15 -21 15 12 39 75 56 94 67 104 68 6 0 60 -34 120
-76z m-518 -100 c27 -6 50 -30 38 -41 -2 -3 -68 -5 -145 -5 l-141 0 0 -662 0
-663 176 -172 176 -172 -4 -304 -3 -305 -71 -72 c-69 -71 -71 -74 -67 -116 6
-50 -12 -84 -59 -108 -63 -32 -148 23 -148 96 0 67 76 123 136 100 27 -11 31
-8 91 57 l63 68 0 285 0 285 -175 175 -175 175 0 692 0 693 139 0 c76 0 152
-3 169 -6z m3582 -681 c0 -346 -3 -651 -6 -680 -5 -37 -11 -53 -24 -56 -14 -3
-19 3 -24 25 -3 17 -6 316 -6 664 0 627 0 634 -20 634 -13 0 -20 7 -20 20 0
17 7 20 50 20 l50 0 0 -627z m445 355 c3 -128 5 -793 3 -1478 l-3 -1245 -27
-3 -28 -3 0 1414 c0 778 3 1448 6 1490 6 68 9 75 24 67 16 -8 18 -35 25 -242z
m-3971 196 c9 -3 16 -15 16 -25 0 -16 -8 -19 -45 -19 l-45 0 0 -563 0 -562
168 -167 167 -168 -3 -610 c-2 -587 -3 -610 -21 -610 -13 0 -20 10 -25 31 -3
17 -6 286 -6 598 l0 566 -165 165 -165 165 0 602 0 603 54 0 c30 0 61 -3 70
-6z m297 -153 c39 -39 40 -96 3 -140 -22 -27 -32 -31 -76 -31 -41 0 -54 5 -79
29 -23 23 -29 38 -29 71 0 61 41 100 105 100 38 0 52 -5 76 -29z m405 -57 c50
-24 57 -37 40 -70 -8 -16 -21 -46 -30 -66 -19 -47 -54 -70 -115 -76 -44 -4
-49 -2 -75 29 -24 28 -27 40 -23 76 10 95 113 149 203 107z m2577 -159 c50
-24 72 -62 72 -122 0 -61 -23 -99 -79 -127 -128 -63 -252 104 -159 215 43 50
106 63 166 34z m-2925 -74 c7 -45 -7 -91 -28 -91 -14 0 -20 8 -22 33 l-3 32
-76 5 c-52 3 -81 10 -92 22 -16 15 -16 17 1 21 9 3 62 4 117 4 97 -2 100 -3
103 -26z m611 -30 c43 -9 61 -23 61 -50 0 -11 -13 -13 -63 -8 -64 6 -64 6
-100 -31 l-37 -38 0 -142 0 -141 60 -72 c33 -39 60 -75 60 -79 0 -4 -8 -15
-19 -24 -18 -16 -21 -14 -85 63 l-66 79 0 167 0 167 53 59 c55 61 62 64 136
50z m1807 -55 c14 -11 19 -26 19 -66 0 -60 -18 -80 -75 -80 -56 0 -80 23 -80
77 0 61 20 83 75 83 22 0 50 -6 61 -14z m-1500 -79 c68 -105 79 -137 45 -137
-13 0 -34 23 -64 68 -60 92 -63 102 -29 102 19 0 33 -9 48 -33z m-986 -13 c0
-9 5 -12 13 -8 6 4 2 -4 -10 -18 -27 -29 -29 -64 -6 -90 43 -47 117 4 94 65
-8 19 -6 23 12 24 47 4 52 -70 8 -119 -25 -29 -36 -33 -78 -33 -44 0 -55 -5
-103 -47 -41 -36 -57 -45 -71 -38 -21 12 -33 40 -16 40 7 1 34 21 60 45 43 40
47 47 37 66 -16 28 -5 77 22 106 25 27 38 29 38 7z m2153 -5 c61 -31 76 -105
31 -158 -48 -58 -135 -47 -170 20 -44 86 53 182 139 138z m792 -113 c70 -30
83 -120 24 -170 -100 -85 -232 51 -142 146 22 23 35 30 76 37 4 0 23 -5 42
-13z m-515 -148 c-20 -33 -68 -105 -563 -853 -149 -225 -272 -412 -273 -413
-1 -2 -76 -4 -167 -5 -153 -2 -165 -1 -179 18 -8 11 -126 184 -263 385 -136
201 -277 407 -312 458 l-64 92 33 0 c30 -1 38 -8 86 -78 29 -42 81 -117 115
-167 35 -49 125 -182 201 -295 77 -113 164 -240 194 -283 l54 -78 136 3 136 3
60 90 c34 50 220 330 414 623 332 501 355 532 382 532 l29 0 -19 -32z m-1377
-59 c39 -42 38 -100 -2 -140 -85 -85 -226 26 -162 128 36 58 115 64 164 12z
m-1022 -45 c42 -21 64 -75 49 -120 -34 -102 -178 -97 -199 6 -6 32 -10 35 -44
38 -23 2 -41 10 -47 22 -12 22 4 30 61 30 21 0 56 9 76 20 45 24 65 25 104 4z
m1999 -67 c27 -21 50 -60 50 -85 0 -65 -67 -119 -134 -106 l-33 6 -183 -272
c-166 -249 -181 -274 -171 -297 19 -42 13 -73 -23 -109 -97 -97 -238 36 -147
138 25 28 36 33 73 32 33 -1 47 4 59 20 9 12 87 127 174 256 87 129 164 242
171 251 10 11 11 24 4 48 -10 37 0 74 32 109 16 17 32 22 67 22 25 0 53 -6 61
-13z m-392 -13 c18 -13 22 -25 22 -73 0 -31 -5 -62 -12 -69 -18 -18 -98 -15
-120 5 -26 23 -25 106 2 133 24 24 77 26 108 4z m-333 -147 c34 -29 45 -96 21
-132 -37 -56 -106 -67 -160 -24 -47 37 -43 129 8 164 32 23 100 19 131 -8z
m1680 -171 c69 -69 25 -176 -72 -176 -62 0 -103 40 -103 100 0 61 41 100 105
100 35 0 51 -6 70 -24z m-3477 -207 c40 -14 62 -49 62 -97 0 -77 -74 -127
-143 -98 -37 15 -67 59 -67 96 0 33 28 78 58 94 33 18 50 19 90 5z m33 -356
c8 -9 14 -40 14 -74 0 -67 -18 -88 -74 -89 -54 0 -71 23 -71 95 0 34 5 66 12
73 18 18 103 15 119 -5z m3967 -88 c25 -30 28 -62 8 -110 -18 -41 -42 -55 -98
-55 -41 0 -47 -4 -145 -102 l-103 -103 0 -77 c0 -77 0 -78 -25 -78 -25 0 -25
1 -25 91 l0 90 111 108 c101 97 111 109 100 128 -16 31 -14 64 9 100 34 57
121 61 168 8z m-60 -451 c18 -13 22 -25 22 -74 0 -69 -19 -90 -82 -90 -29 0
-41 6 -54 25 -22 34 -15 122 12 142 24 18 75 17 102 -3z m-3669 -140 c13 -11
-36 -44 -66 -44 -39 0 -41 6 -11 37 16 17 28 21 47 16 14 -3 28 -7 30 -9z
m-177 -83 c13 -5 32 -25 43 -44 37 -69 -12 -151 -90 -151 -44 0 -87 32 -99 72
-25 88 57 157 146 123z m3728 -151 l0 -30 -105 0 -105 0 0 30 0 30 105 0 105
0 0 -30z"/>
<path d="M6290 7578 c-25 -28 -26 -52 0 -78 25 -25 52 -26 73 -2 24 26 21 68
-5 86 -30 21 -43 20 -68 -6z"/>
<path d="M3264 7444 c-16 -24 -16 -29 -3 -53 21 -37 72 -41 94 -7 14 21 15 29
3 53 -19 40 -70 44 -94 7z"/>
<path d="M6566 6978 c-21 -29 -20 -51 2 -71 45 -41 114 0 93 55 -16 43 -70 52
-95 16z"/>
<path d="M5390 6210 c-23 -23 -24 -33 -10 -60 16 -30 46 -43 70 -30 31 17 43
46 29 73 -23 42 -57 49 -89 17z"/>
<path d="M3182 4694 c-44 -30 -16 -104 39 -104 17 0 59 44 59 62 0 14 -47 58
-62 58 -8 0 -24 -7 -36 -16z"/>
<path d="M3600 6860 c-11 -11 -20 -29 -20 -40 0 -22 33 -60 53 -60 27 0 57 31
57 60 0 18 -8 34 -22 44 -30 21 -44 20 -68 -4z"/>
<path d="M6566 6649 c-39 -30 -59 -75 -52 -114 24 -127 201 -132 233 -7 24 97
-103 183 -181 121z"/>
<path d="M5767 6362 c-22 -25 -21 -48 3 -72 24 -24 53 -26 74 -4 19 18 21 65
4 82 -18 18 -63 14 -81 -6z"/>
<path d="M6573 6255 c-45 -32 -28 -95 27 -95 55 0 78 52 40 90 -24 24 -38 25
-67 5z"/>
<path d="M4640 6070 c-11 -11 -20 -28 -20 -38 0 -41 69 -69 98 -40 20 20 14
65 -10 82 -30 21 -44 20 -68 -4z"/>
<path d="M3633 5994 c-15 -24 -15 -29 -2 -53 20 -36 71 -41 93 -9 21 30 20 44
-4 68 -28 28 -66 26 -87 -6z"/>
<path d="M5648 5949 c-30 -17 -39 -45 -26 -74 22 -49 91 -41 104 12 6 21 1 31
-20 50 -30 26 -34 27 -58 12z"/>
<path d="M5127 5232 c-34 -37 -11 -92 38 -92 50 0 73 60 37 93 -24 22 -55 21
-75 -1z"/>
<path d="M4890 5780 c-17 -32 -8 -63 22 -80 46 -25 90 16 72 67 -8 23 -16 29
-46 31 -29 2 -39 -1 -48 -18z"/>
<path d="M6582 5624 c-51 -35 -8 -117 50 -95 42 16 50 59 18 91 -24 24 -38 25
-68 4z"/>
<path d="M3126 5388 c-23 -32 -20 -54 10 -77 38 -30 84 -9 84 40 0 55 -64 80
-94 37z"/>
<path d="M7090 4980 c-28 -28 -26 -66 6 -87 24 -15 29 -15 53 -2 34 19 39 61
12 88 -26 26 -46 26 -71 1z"/>
<path d="M3232 4288 c-24 -12 -38 -48 -28 -73 3 -8 17 -20 30 -27 58 -26 106
60 54 96 -26 18 -25 18 -56 4z"/>
<path d="M4350 4929 c0 -52 2 -60 18 -57 13 2 18 15 20 61 3 52 1 57 -18 57
-18 0 -20 -6 -20 -61z"/>
<path d="M5842 4958 c-26 -26 -6 -113 23 -102 10 4 15 20 15 49 0 47 -19 72
-38 53z"/>
<path d="M4352 4693 c3 -106 6 -128 18 -128 12 0 15 22 18 128 2 122 2 127
-18 127 -20 0 -20 -5 -18 -127z"/>
<path d="M5835 4790 c-11 -36 3 -92 23 -88 24 5 25 101 0 106 -10 2 -19 -5
-23 -18z"/>
<path d="M5835 4630 c-11 -36 3 -92 23 -88 24 5 25 101 0 106 -10 2 -19 -5
-23 -18z"/>
<path d="M4663 4564 c-8 -21 13 -42 28 -27 13 13 5 43 -11 43 -6 0 -13 -7 -17
-16z"/>
<path d="M5532 4553 c2 -10 10 -18 18 -18 8 0 16 8 18 18 2 12 -3 17 -18 17
-15 0 -20 -5 -18 -17z"/>
<path d="M4350 4470 c0 -43 3 -50 20 -50 17 0 20 7 20 50 0 43 -3 50 -20 50
-17 0 -20 -7 -20 -50z"/>
<path d="M4662 4338 c3 -137 5 -163 18 -163 13 0 15 26 18 163 2 158 2 162
-18 162 -20 0 -20 -4 -18 -162z"/>
<path d="M5534 4487 c-3 -8 -4 -47 -2 -88 2 -58 6 -74 18 -74 12 0 16 18 18
88 2 74 0 87 -13 87 -9 0 -18 -6 -21 -13z"/>
<path d="M5080 4238 l-1 -253 -37 -17 c-55 -26 -82 -72 -82 -141 0 -51 4 -61
36 -97 64 -70 164 -77 228 -16 38 35 60 100 50 143 -9 39 -51 92 -90 115 l-34
20 0 249 0 249 -35 0 -35 0 0 -252z m66 -400 c7 -22 -19 -52 -40 -45 -17 6
-29 34 -23 51 10 24 54 21 63 -6z"/>
<path d="M5836 4475 c-19 -50 7 -112 33 -81 18 21 10 90 -10 94 -9 2 -19 -4
-23 -13z"/>
<path d="M4344 4336 c-8 -46 0 -66 26 -66 19 0 21 5 18 47 -2 35 -7 49 -20 51
-12 2 -19 -6 -24 -32z"/>
<path d="M5841 4321 c-6 -11 -11 -29 -11 -41 0 -12 5 -30 11 -41 16 -30 39 -6
39 41 0 47 -23 71 -39 41z"/>
<path d="M5530 4170 c0 -93 1 -100 20 -100 19 0 20 7 20 100 0 93 -1 100 -20
100 -19 0 -20 -7 -20 -100z"/>
<path d="M4350 4200 c-6 -11 -10 -35 -8 -53 2 -25 8 -33 26 -35 22 -3 23 -1
20 49 -3 56 -20 73 -38 39z"/>
<path d="M5834 4143 c-7 -39 4 -68 27 -68 8 0 15 12 17 29 9 72 -31 108 -44
39z"/>
<path d="M4667 4124 c-4 -4 -7 -134 -7 -288 l0 -281 116 -69 c121 -71 146 -81
151 -56 2 10 -35 38 -112 83 l-115 69 -2 270 c-3 258 -7 295 -31 272z"/>
<path d="M4351 4041 c-12 -22 -14 -70 -5 -95 3 -9 15 -16 26 -16 17 0 19 6 16
62 -3 64 -18 85 -37 49z"/>
<path d="M5834 3986 c-8 -45 1 -68 23 -64 25 5 26 91 1 96 -12 2 -19 -6 -24
-32z"/>
<path d="M5530 3950 c0 -53 2 -60 20 -60 18 0 20 7 20 60 0 53 -2 60 -20 60
-18 0 -20 -7 -20 -60z"/>
<path d="M2820 3840 c0 -73 2 -80 20 -80 19 0 20 -8 22 -166 3 -143 5 -168 20
-177 12 -8 21 -7 32 2 13 11 16 40 16 176 0 155 1 163 20 168 19 5 21 12 18
79 l-3 73 -72 3 -73 3 0 -81z"/>
<path d="M3022 3843 c3 -72 5 -78 26 -81 22 -3 22 -5 22 -172 0 -140 2 -169
15 -174 8 -3 22 -3 30 0 13 5 15 34 15 174 0 167 0 169 23 172 20 3 22 9 25
81 l3 77 -81 0 -81 0 3 -77z"/>
<path d="M3280 3840 c0 -73 2 -80 20 -80 19 0 20 -8 22 -166 3 -148 5 -168 21
-178 15 -9 21 -7 32 8 12 15 13 49 8 173 -6 152 -6 154 16 160 19 5 21 12 21
84 l0 79 -70 0 -70 0 0 -80z"/>
<path d="M3520 3841 c0 -73 2 -80 21 -83 21 -3 21 -6 20 -213 -2 -172 1 -214
13 -230 12 -16 18 -18 33 -9 16 10 18 31 21 233 2 213 3 221 22 221 18 0 20 7
20 80 l0 80 -75 0 -75 0 0 -79z"/>
<path d="M6570 3840 c0 -79 0 -80 25 -80 l25 0 0 -224 c0 -234 2 -245 43 -224
15 8 17 29 17 228 l0 219 23 3 c21 3 22 8 22 78 l0 75 -77 3 -78 3 0 -81z"/>
<path d="M6830 3840 c0 -73 2 -80 20 -80 19 0 20 -7 20 -163 0 -113 4 -167 12
-175 16 -16 23 -15 43 5 15 14 16 37 14 172 -3 137 -2 156 13 159 20 4 26 35
20 106 l-4 56 -69 0 -69 0 0 -80z"/>
<path d="M7060 3840 c0 -74 1 -80 21 -80 20 0 21 -4 18 -166 -3 -175 2 -195
43 -173 16 9 18 26 18 174 0 162 0 164 23 167 21 3 22 8 22 78 l0 75 -72 3
-73 3 0 -81z"/>
<path d="M7270 3840 c0 -73 2 -80 20 -80 19 0 20 -7 20 -169 0 -141 2 -170 15
-175 8 -3 22 -3 30 0 13 5 15 34 15 175 0 162 1 169 20 169 18 0 20 7 20 80
l0 80 -70 0 -70 0 0 -80z"/>
<path d="M4355 3868 c-3 -8 -4 -92 -3 -188 3 -152 5 -175 19 -178 23 -4 25 17
19 207 -4 119 -8 166 -17 169 -7 2 -15 -2 -18 -10z"/>
<path d="M5839 3848 c-11 -293 -6 -354 26 -342 13 5 15 31 13 183 -3 158 -5
176 -20 179 -13 2 -18 -3 -19 -20z"/>
<path d="M5528 3709 l-3 -131 -109 -67 c-60 -36 -111 -71 -113 -77 -10 -31 35
-16 145 49 l122 72 0 143 c0 135 -1 142 -20 142 -18 0 -20 -8 -22 -131z"/>
<path d="M5834 3446 c-3 -7 -4 -33 -2 -57 2 -36 7 -44 23 -44 17 0 20 8 23 49
2 32 -1 52 -10 57 -19 12 -28 11 -34 -5z"/>
<path d="M4350 3395 c0 -48 2 -55 20 -55 18 0 20 7 20 55 0 48 -2 55 -20 55
-18 0 -20 -7 -20 -55z"/>
<path d="M3942 3140 c-306 -47 -664 -132 -1195 -281 -81 -23 -146 -43 -145
-45 2 -1 66 4 143 11 77 8 253 26 390 40 138 14 351 36 475 50 440 48 678 55
810 25 111 -26 234 -94 305 -170 l30 -32 -60 36 c-198 119 -393 145 -822 111
-406 -33 -967 -106 -990 -129 -4 -3 248 -6 558 -6 595 0 710 -6 879 -49 75
-19 74 -19 -1017 -20 l-1093 -1 0 -155 0 -155 65 0 65 0 0 45 0 45 1143 0
c721 0 1155 -4 1178 -10 40 -11 83 -51 98 -92 l11 -28 345 0 c309 0 345 2 345
16 0 31 35 75 75 94 40 20 66 20 1193 20 l1152 0 0 -45 0 -45 65 0 65 0 0 155
0 155 -1087 1 c-1165 1 -1164 1 -899 46 85 14 202 18 726 22 344 3 614 9 600
13 -100 30 -706 101 -1085 129 -190 14 -407 7 -490 -15 -87 -24 -161 -54 -235
-98 l-65 -38 57 54 c72 69 143 109 243 138 71 20 100 23 265 22 188 -1 318
-11 810 -65 151 -16 354 -36 450 -44 96 -8 213 -19 259 -25 46 -6 85 -9 87 -7
5 5 -325 94 -633 171 -310 77 -547 127 -739 155 -187 28 -424 28 -546 1 -278
-61 -486 -227 -589 -468 -16 -37 -29 -60 -29 -52 0 8 -20 55 -44 105 -95 194
-280 339 -521 406 -115 32 -426 37 -603 9z"/>
<path d="M9270 595 l0 -145 35 0 35 0 0 80 c0 44 3 80 7 80 4 0 29 -21 54 -46
l48 -47 39 31 c21 17 45 39 53 48 12 15 15 8 19 -62 l5 -79 30 0 30 0 3 143
c3 172 2 173 -106 76 l-73 -66 -67 66 c-42 42 -75 66 -89 66 -23 0 -23 -1 -23
-145z"/>
<path d="M9379 373 c-1 -4 -1 -11 0 -15 0 -5 -12 -8 -29 -8 -25 0 -30 -4 -30
-24 0 -31 19 -45 53 -39 24 5 27 10 27 44 0 21 -4 41 -10 44 -5 3 -11 3 -11
-2z m-11 -64 c-16 -10 -33 5 -23 21 5 8 11 8 21 -1 12 -10 12 -14 2 -20z"/>
<path d="M9412 336 c2 -27 8 -51 15 -53 8 -3 10 9 6 39 -8 63 -25 74 -21 14z"/>
<path d="M9190 314 c0 -21 4 -33 10 -29 6 3 10 17 10 31 0 13 5 24 10 24 6 0
10 -11 10 -24 0 -14 5 -28 10 -31 6 -4 10 6 10 22 l1 28 15 -28 c19 -36 39
-30 40 11 l1 32 -58 0 -59 0 0 -36z"/>
<path d="M9455 342 c11 -4 21 -13 23 -21 3 -12 0 -12 -12 -1 -14 11 -16 9 -16
-9 0 -18 6 -21 46 -21 44 0 45 1 42 28 -3 25 -6 27 -53 29 -28 1 -41 -1 -30
-5z m62 -34 c-3 -8 -6 -5 -6 6 -1 11 2 17 5 13 3 -3 4 -12 1 -19z"/>
<path d="M9555 328 c4 -13 13 -29 21 -37 11 -12 15 -11 24 13 5 15 14 24 20
21 14 -8 13 -38 -2 -53 -9 -9 -8 -12 5 -12 11 0 25 16 36 43 20 45 18 63 -4
34 -11 -15 -13 -16 -19 -2 -7 20 -33 19 -45 -2 -9 -17 -10 -17 -16 0 -10 25
-27 21 -20 -5z"/>
</g>
</svg>
