<?xml version="1.0" standalone="no"?>
<!DOCTYPE svg PUBLIC "-//W3C//DTD SVG 20010904//EN"
 "http://www.w3.org/TR/2001/REC-SVG-20010904/DTD/svg10.dtd">
<svg version="1.0" xmlns="http://www.w3.org/2000/svg"
 width="784.978529pt" height="728.962029pt" viewBox="0 0 784.978529 728.962029"
 preserveAspectRatio="xMidYMid meet">
<metadata>
Created by potrace 1.16, written by Peter Selinger 2001-2019
</metadata>
<g transform="translate(-180.000000,772.962029) scale(0.100000,-0.100000)"
fill="#000000" stroke="none">
<path d="M2990 7710 c-20 -20 -20 -33 -20 -1535 l0 -1514 120 -92 120 -92 0
-309 c0 -295 1 -309 20 -328 25 -25 72 -26 93 -2 25 27 25 422 1 467 -14 26
-15 56 -9 215 5 139 10 189 21 201 8 8 14 24 14 35 0 11 27 46 60 79 l60 59 0
529 0 528 -40 38 c-36 34 -40 43 -40 87 0 56 17 87 60 109 53 28 120 11 154
-37 9 -13 16 -43 16 -72 0 -44 -4 -53 -40 -87 l-40 -38 0 -539 0 -538 -65 -72
-65 -73 0 -114 0 -115 85 0 85 0 0 -95 0 -95 -35 0 -35 0 0 65 0 65 -50 0 -50
0 0 -284 0 -284 31 -26 c30 -26 33 -26 195 -26 177 0 210 7 236 53 10 17 14
240 18 1047 l5 1025 146 -230 c80 -126 292 -462 471 -745 179 -283 342 -541
362 -573 60 -93 73 -98 258 -95 181 3 178 2 253 118 288 446 715 1113 851
1329 l109 175 2 -1015 c2 -778 6 -1019 15 -1037 22 -42 58 -52 182 -52 109 0
116 1 145 26 l31 26 0 1287 0 1288 -37 24 c-52 34 -75 82 -70 145 4 65 36 110
94 136 61 27 112 17 163 -31 82 -78 55 -217 -50 -261 l-30 -12 0 -1290 0
-1289 25 -24 c20 -21 33 -25 88 -25 54 0 68 4 91 25 l26 24 0 884 0 885 -25 6
c-33 8 -92 61 -112 100 -20 39 -20 123 0 162 23 45 80 91 128 104 133 36 265
-96 229 -230 -14 -51 -70 -115 -116 -132 l-34 -12 0 -883 0 -884 26 -24 c25
-23 35 -25 126 -25 103 0 149 13 162 45 3 9 6 493 6 1076 l0 1059 -24 10 c-13
5 -40 23 -60 41 -60 53 -83 113 -51 139 8 6 13 15 12 19 -1 3 8 17 20 30 12
13 20 28 17 33 -3 4 0 8 7 8 10 0 10 3 1 12 -8 8 -8 17 0 31 9 17 8 19 -7 13
-35 -13 5 22 49 43 132 64 286 -31 286 -176 -1 -92 -58 -171 -140 -193 l-40
-11 0 -1089 0 -1090 96 0 96 0 39 39 39 39 0 1873 c-1 2046 4 1890 -57 1931
-26 17 -64 18 -625 18 l-596 0 -67 -102 c-36 -57 -185 -290 -331 -518 -145
-228 -273 -427 -284 -442 l-21 -28 -195 0 -195 0 -83 -127 c-46 -71 -93 -146
-104 -168 -31 -60 -69 -102 -81 -90 -5 6 -31 51 -57 100 -26 50 -76 134 -110
188 l-63 97 -204 0 c-171 0 -207 2 -217 15 -15 18 -206 320 -478 757 l-197
317 -297 1 c-350 0 -338 4 -338 -99 l0 -60 84 -65 83 -66 168 -2 168 -3 65
-105 c216 -350 521 -821 555 -857 22 -23 66 -56 98 -73 l58 -31 26 40 c57 85
164 80 220 -9 l25 -40 128 -1 c70 -1 119 -3 110 -6 -22 -5 -23 -17 -3 -36 13
-13 -1 -15 -110 -18 l-124 -4 -37 -38 c-42 -43 -68 -52 -127 -44 -31 4 -50 14
-72 39 -16 19 -51 42 -77 52 -61 22 -115 63 -168 123 -35 41 -216 320 -554
856 l-55 87 -156 0 -155 0 -105 78 -104 77 -1 96 c0 60 -4 99 -12 107 -19 19
-66 14 -88 -8z m4429 -374 c26 -14 51 -53 51 -81 0 -27 -22 -63 -47 -74 -37
-17 -61 -13 -122 19 l-56 30 -324 -2 -324 -3 -90 -145 c-49 -80 -159 -257
-244 -395 -85 -137 -166 -263 -181 -278 -14 -15 -47 -39 -72 -54 -70 -40 -95
-68 -187 -210 -47 -73 -86 -133 -88 -133 -1 0 0 11 2 23 3 13 -2 31 -10 39
-14 13 -6 30 71 155 83 135 89 143 159 187 85 54 69 32 369 511 l232 370 354
5 c341 5 354 6 393 27 47 26 76 28 114 9z m-4313 -238 c13 -46 37 -57 76 -35
17 10 33 15 36 12 3 -3 -4 -26 -16 -50 -12 -25 -18 -45 -14 -45 4 0 6 -177 4
-394 l-2 -394 60 -53 60 -53 0 -242 0 -241 -60 -47 -60 -47 0 -91 c0 -84 2
-91 25 -110 73 -57 70 -164 -5 -203 -46 -24 -85 -19 -124 15 -59 52 -57 127 4
185 30 28 30 30 30 132 l0 104 33 30 c17 17 45 38 60 47 15 9 30 26 33 37 2
11 3 105 2 209 l-3 189 -60 42 -60 42 -3 411 -2 410 -35 52 c-27 40 -35 62
-35 96 0 42 1 43 23 33 13 -6 28 -24 33 -41z m3884 -58 l0 -71 -62 3 -63 3 -1
60 c0 33 1 63 3 68 2 4 31 7 64 7 l59 0 0 -70z m-3256 -159 c5 -1 6 -4 3 -8
-4 -3 3 -11 16 -17 12 -6 32 -31 45 -56 32 -61 25 -136 -16 -196 l-30 -42 50
-78 c144 -225 133 -214 238 -261 138 -61 134 -58 114 -92 -13 -22 -21 -27 -33
-20 -9 4 -62 27 -119 50 -116 47 -106 37 -227 239 -68 113 -96 150 -113 150
-16 0 -4 79 16 105 40 50 35 115 -11 153 -21 18 10 79 38 76 11 -1 24 -3 29
-3z m-265 -27 c39 -50 18 -114 -44 -134 -57 -19 -104 17 -105 79 0 51 32 81
86 81 34 0 47 -5 63 -26z m3711 -34 c27 -27 25 -56 -5 -85 -13 -14 -33 -25
-45 -25 -28 0 -60 35 -60 67 0 57 69 84 110 43z m-3798 -415 l3 -65 -62 0 -63
0 0 65 0 65 59 0 59 0 4 -65z m1828 -387 l0 -68 -60 0 -60 0 0 70 0 70 60 -2
60 -3 0 -67z m-373 -105 c-2 -16 -4 -3 -4 27 0 30 2 43 4 28 2 -16 2 -40 0
-55z m83 12 l0 -65 -45 0 c-25 0 -45 5 -45 10 0 6 15 8 40 4 l40 -7 0 62 c0
33 2 61 5 61 3 0 5 -29 5 -65z m1025 3 c14 -6 25 -15 25 -19 0 -7 -205 -333
-294 -466 l-48 -72 -23 27 -23 27 21 35 c19 32 89 144 245 393 31 48 59 87 63
87 5 0 20 -5 34 -12z m-446 -192 c-9 -18 -8 -29 5 -47 15 -23 13 -28 -29 -98
-24 -41 -48 -93 -54 -115 -24 -95 -130 -167 -224 -152 -131 21 -211 156 -161
274 20 49 60 90 109 113 76 35 154 18 221 -48 l43 -43 24 32 c13 18 34 50 46
71 25 42 36 49 20 13z m-1731 -133 l3 -61 -58 -4 c-32 -2 -61 -3 -65 -1 -10 5
-10 117 -1 127 4 4 32 6 63 4 l55 -3 3 -62z m949 -308 l78 -125 60 0 c101 -1
173 -48 211 -139 32 -74 -2 -174 -75 -226 -37 -26 -51 -30 -109 -30 -49 0 -78
6 -107 21 -112 58 -140 215 -55 309 18 20 17 23 -72 169 l-90 150 23 19 c23
18 24 18 41 -2 9 -12 52 -78 95 -146z m1863 -290 l0 -65 -65 0 -65 0 0 65 0
65 65 0 65 0 0 -65z m-1090 -190 l0 -65 -65 0 -65 0 0 65 0 65 65 0 65 0 0
-65z m1799 -69 c95 -50 26 -193 -74 -152 -51 22 -68 67 -44 120 20 43 70 56
118 32z m-2036 -43 c30 -34 31 -67 2 -101 -65 -78 -177 11 -115 91 26 33 87
38 113 10z m1375 -392 c-2 -75 -2 -78 -5 -23 -3 53 -8 65 -28 78 -35 23 -32
42 5 36 l30 -4 -2 -87z m-3060 -198 c-10 -2 -26 -2 -35 0 -10 3 -2 5 17 5 19
0 27 -2 18 -5z"/>
<path d="M3114 5236 c-15 -24 -15 -28 0 -52 34 -51 110 -9 83 46 -18 36 -61
39 -83 6z"/>
<path d="M7096 6814 c-32 -31 -11 -84 32 -84 35 0 52 16 52 50 0 14 -5 31 -12
38 -17 17 -54 15 -72 -4z"/>
<path d="M5179 5605 c-79 -43 -47 -165 43 -165 85 0 122 100 57 154 -34 29
-61 32 -100 11z"/>
<path d="M4813 5038 c-29 -33 -35 -57 -22 -95 27 -82 141 -82 169 1 20 62 -20
116 -85 116 -30 0 -47 -6 -62 -22z"/>
<path d="M7215 4738 c-49 -28 -58 -73 -22 -112 31 -35 57 -39 95 -16 26 16 32
26 32 55 0 25 -8 44 -25 60 -26 27 -49 31 -80 13z"/>
<path d="M5163 4702 c-36 -23 -32 -91 6 -112 44 -23 91 9 91 63 0 43 -59 73
-97 49z"/>
<path d="M6144 7721 c-54 -13 -80 -42 -188 -211 -58 -91 -200 -309 -315 -485
l-210 -320 142 -3 c77 -1 146 -1 153 2 6 2 71 98 145 213 73 114 213 333 312
487 98 153 176 284 173 291 -11 29 -135 44 -212 26z"/>
<path d="M2549 7697 c-18 -12 -39 -34 -46 -47 -10 -20 -13 -418 -13 -1889 l0
-1863 39 -39 c38 -39 39 -39 119 -39 64 0 81 3 86 16 3 9 6 694 6 1523 0 829
3 1630 7 1779 6 267 7 272 27 272 15 0 22 -7 24 -27 2 -16 6 -812 8 -1770 l4
-1742 31 -25 c28 -24 37 -26 134 -26 97 0 105 2 134 26 l31 26 0 286 0 287
-115 88 -115 88 0 47 c0 26 -1 712 -3 1524 l-2 1476 -24 26 c-24 25 -27 26
-161 26 -126 0 -140 -2 -171 -23z m479 -3384 c32 -43 1 -103 -53 -103 -36 0
-50 12 -60 52 -10 39 34 83 73 73 15 -3 33 -13 40 -22z"/>
<path d="M2941 4306 c-21 -26 -10 -69 22 -80 23 -8 31 -6 49 12 18 18 20 26
12 49 -7 21 -17 29 -40 31 -18 2 -36 -3 -43 -12z"/>
<path d="M3909 7701 l-23 -18 56 -89 c106 -170 514 -819 539 -856 l24 -38 163
0 c89 0 162 2 162 4 0 3 -37 61 -82 130 -46 69 -188 287 -316 485 -169 261
-243 366 -267 381 -46 28 -221 30 -256 1z"/>
<path d="M6734 6662 c-6 -4 -16 -17 -23 -30 -25 -48 48 -99 87 -60 40 40 -18
121 -64 90z"/>
<path d="M4520 6361 c-22 -43 -5 -81 36 -81 29 0 54 25 54 55 0 42 -70 62 -90
26z"/>
<path d="M7409 6277 c-47 -36 -51 -97 -10 -138 33 -32 58 -36 100 -14 53 27
58 115 9 150 -27 18 -77 19 -99 2z"/>
<path d="M3472 6124 c-49 -34 -6 -123 47 -94 46 24 47 75 1 100 -24 13 -21 13
-48 -6z"/>
<path d="M7011 5884 c-36 -30 -39 -61 -10 -98 39 -50 129 -23 129 38 0 38 -10
56 -41 71 -38 20 -42 19 -78 -11z"/>
<path d="M4076 5068 c-37 -53 -5 -118 58 -118 37 0 76 36 76 70 0 10 -9 29
-21 44 -27 35 -90 37 -113 4z m90 -40 c4 -15 1 -25 -11 -34 -16 -12 -53 -8
-41 4 3 3 1 11 -5 18 -15 18 -3 34 26 34 16 0 26 -7 31 -22z"/>
<path d="M6059 5041 c-34 -34 -37 -68 -9 -104 39 -49 106 -43 135 12 19 38 11
75 -22 101 -36 28 -70 25 -104 -9z"/>
<path d="M4060 4652 l0 -48 35 4 c34 4 35 5 35 48 0 44 0 44 -35 44 l-35 0 0
-48z"/>
<path d="M6132 4578 c-28 -28 -1 -75 38 -63 14 4 20 15 20 35 0 36 -33 53 -58
28z"/>
<path d="M5855 4365 c-51 -50 -15 -135 58 -135 56 0 94 56 76 110 -20 55 -91
69 -134 25z"/>
<path d="M4412 4368 c-19 -19 -14 -48 11 -57 34 -13 48 -2 45 33 -3 34 -33 47
-56 24z"/>
<path d="M4651 4144 c-44 -56 -8 -134 62 -134 67 0 105 92 57 140 -31 31 -93
27 -119 -6z"/>
<path d="M5476 4144 c-71 -72 13 -186 103 -140 36 19 51 44 51 86 0 74 -99
108 -154 54z"/>
<path d="M5860 3950 l0 -100 60 0 60 0 0 100 0 100 -60 0 -60 0 0 -100z"/>
<path d="M4161 3984 c-12 -15 -21 -37 -21 -49 0 -12 9 -34 21 -49 38 -49 112
-25 125 41 5 26 1 37 -19 57 -35 35 -79 35 -106 0z m82 -36 c8 -12 7 -21 -2
-32 -18 -22 -38 -20 -51 5 -22 40 29 66 53 27z"/>
<path d="M5072 3957 c-33 -35 -30 -89 8 -120 l30 -26 0 -315 c0 -310 0 -315
-21 -321 -25 -8 -52 -66 -42 -92 33 -94 163 -79 163 18 0 26 -8 43 -30 64
l-30 29 0 309 0 309 30 28 c36 34 39 75 9 114 -27 35 -86 36 -117 3z"/>
<path d="M4670 3626 c-20 -25 -8 -61 21 -64 36 -4 55 21 41 53 -13 28 -43 33
-62 11z"/>
<path d="M5538 3629 c-22 -12 -23 -42 -3 -59 32 -26 81 13 59 48 -14 21 -33
25 -56 11z"/>
<path d="M2280 3135 l0 -105 899 0 c550 0 938 -4 1000 -10 186 -20 333 -75
473 -180 63 -48 145 -134 183 -192 l17 -28 -122 0 -122 0 -60 55 c-36 33 -91
70 -141 94 -153 74 -96 71 -1422 71 l-1185 0 0 -110 0 -110 1180 0 c828 0
1195 -3 1232 -11 90 -19 158 -58 230 -131 l66 -68 613 0 612 0 51 56 c56 62
100 93 179 127 l52 22 1215 5 1215 5 3 108 3 107 -1223 -2 -1223 -3 -82 -28
c-90 -30 -221 -111 -255 -158 l-22 -29 -123 0 c-68 0 -123 3 -123 6 0 15 76
107 128 156 152 140 327 216 548 238 55 5 496 10 997 10 l897 0 0 105 0 106
-997 -3 -998 -3 -100 -27 c-208 -57 -428 -192 -559 -345 -54 -63 -141 -192
-151 -223 -5 -15 -15 -20 -40 -20 -31 0 -36 5 -69 66 -147 267 -396 450 -725
531 -58 15 -180 17 -1058 20 l-993 4 0 -106z"/>
<path d="M8724 566 c-3 -8 -4 -31 -2 -52 4 -45 28 -60 28 -17 l1 28 16 -29 15
-29 19 24 19 24 0 -22 c0 -14 6 -23 15 -23 12 0 15 13 15 55 0 47 -3 55 -18
55 -11 0 -25 -13 -33 -32 l-15 -31 -13 31 c-14 33 -38 42 -47 18z"/>
<path d="M9000 564 c0 -11 -6 -13 -19 -9 -14 4 -23 0 -31 -15 -11 -20 -13 -20
-24 -5 -7 10 -22 16 -37 13 -20 -2 -24 -8 -24 -38 0 -32 3 -35 33 -38 25 -3
32 0 32 15 1 17 1 17 11 1 6 -12 22 -18 44 -18 l35 0 0 55 c0 30 -4 55 -10 55
-5 0 -10 -7 -10 -16z m-4 -45 c10 -17 -13 -36 -27 -22 -12 12 -4 33 11 33 5 0
12 -5 16 -11z m-79 -25 c-3 -3 -12 -4 -19 -1 -8 3 -5 6 6 6 11 1 17 -2 13 -5z"/>
<path d="M9114 566 c-3 -8 -4 -31 -2 -52 3 -38 3 -38 49 -41 36 -2 48 1 53 13
6 16 8 16 19 0 9 -12 23 -17 42 -14 27 3 30 7 30 38 0 31 -3 35 -29 38 -19 3
-32 -2 -39 -13 -8 -15 -10 -15 -21 0 -20 27 -60 15 -67 -20 -6 -25 -7 -22 -8
18 -1 45 -16 63 -27 33z m84 -53 c-5 -25 -28 -28 -28 -4 0 12 6 21 16 21 9 0
14 -7 12 -17z m92 -3 c0 -11 -7 -20 -15 -20 -8 0 -15 9 -15 20 0 11 7 20 15
20 8 0 15 -9 15 -20z"/>
<path d="M9039 534 c-15 -40 -3 -64 32 -64 26 0 29 3 29 35 0 24 -6 37 -19 45
-28 14 -30 13 -42 -16z m38 -10 c-3 -3 -12 -4 -19 -1 -8 3 -5 6 6 6 11 1 17
-2 13 -5z"/>
<path d="M9320 535 c0 -8 6 -26 12 -41 10 -22 10 -28 0 -32 -15 -5 -6 -22 13
-22 11 0 20 17 52 98 3 6 -2 12 -10 12 -8 0 -18 -10 -21 -22 l-7 -23 -11 23
c-12 25 -28 29 -28 7z"/>
<path d="M9457 543 c-13 -13 -7 -61 9 -67 28 -11 54 -6 54 9 0 9 -8 14 -22 12
-15 -1 -23 3 -23 13 0 10 8 14 23 13 14 -2 22 3 22 12 0 15 -50 22 -63 8z"/>
<path d="M9530 510 c0 -29 4 -40 15 -40 10 0 15 10 15 30 0 17 4 30 9 30 13 0
32 -58 20 -65 -14 -10 -11 -25 6 -25 15 0 54 70 55 98 0 20 -20 14 -30 -10
l-9 -23 -7 23 c-5 17 -14 22 -40 22 -33 0 -34 -1 -34 -40z"/>
<path d="M9400 480 c0 -5 7 -10 15 -10 8 0 15 5 15 10 0 6 -7 10 -15 10 -8 0
-15 -4 -15 -10z"/>
</g>
</svg>
